<svg xmlns="http://www.w3.org/2000/svg" viewBox="0 0 256 256" role="img" aria-label="Coral gear avatar">
  <defs>
    <radialGradient id="bg" cx="50%" cy="35%" r="72%">
      <stop offset="0%" stop-color="#301c1a"/>
      <stop offset="100%" stop-color="#090909"/>
    </radialGradient>
    <radialGradient id="glow" cx="50%" cy="50%" r="52%">
      <stop offset="0%" stop-color="#ff7351" stop-opacity="0.9"/>
      <stop offset="100%" stop-color="#ff7351" stop-opacity="0"/>
    </radialGradient>
  </defs>
  <rect width="256" height="256" rx="64" fill="url(#bg)"/>
  <circle cx="128" cy="128" r="94" fill="url(#glow)"/>
  <g transform="translate(128 128)">
    <rect x="-10" y="-84" width="20" height="32" rx="8" fill="#ff7351" opacity="0.95"/>
    <rect x="-10" y="52" width="20" height="32" rx="8" fill="#ff7351" opacity="0.95"/>
    <rect x="-10" y="-84" width="20" height="32" rx="8" fill="#ff7351" opacity="0.95" transform="rotate(45)"/>
    <rect x="-10" y="52" width="20" height="32" rx="8" fill="#ff7351" opacity="0.95" transform="rotate(45)"/>
    <rect x="-10" y="-84" width="20" height="32" rx="8" fill="#ff7351" opacity="0.95" transform="rotate(90)"/>
    <rect x="-10" y="52" width="20" height="32" rx="8" fill="#ff7351" opacity="0.95" transform="rotate(90)"/>
    <rect x="-10" y="-84" width="20" height="32" rx="8" fill="#ff7351" opacity="0.95" transform="rotate(135)"/>
    <rect x="-10" y="52" width="20" height="32" rx="8" fill="#ff7351" opacity="0.95" transform="rotate(135)"/>
    <circle r="60" fill="#ff7351"/>
    <circle r="36" fill="#101010"/>
    <circle r="22" fill="#ff7351" opacity="0.35"/>
    <circle r="10" fill="#f5f5f5"/>
  </g>
  <circle cx="128" cy="128" r="98" fill="none" stroke="#8d3e31" stroke-width="8" opacity="0.9"/>
</svg>
